<svg width="40" height="40" viewBox="0 0 40 40" xmlns="http://www.w3.org/2000/svg" xmlns:xlink="http://www.w3.org/1999/xlink"><title>Slice</title><defs><path d="M14 2h13a1 1 0 0 1 1 1v21a1 1 0 0 1-1 1H1a1 1 0 0 1-1-1V1a1 1 0 0 1 1-1h10.586a1 1 0 0 1 .707.293L14 2z" id="a"/></defs><g fill="none" fill-rule="evenodd"><path d="M0 0h40v40H0z"/><path d="M20 9h13a1 1 0 0 1 1 1v21a1 1 0 0 1-1 1H7a1 1 0 0 1-1-1V8a1 1 0 0 1 1-1h10.586a1 1 0 0 1 .707.293L20 9z" fill="#97C4FF" fill-rule="nonzero"/><g transform="translate(6 7)"><mask id="b" fill="#fff"><use xlink:href="#a"/></mask><path fill="#68AAFF" fill-rule="nonzero" mask="url(#b)" d="M0 0h28v6H0z"/></g></g></svg>